<?xml version="1.0" encoding="UTF-8" standalone="no"?>
<!-- Created with Inkscape (http://www.inkscape.org/) -->

<svg
   xmlns:dc="http://purl.org/dc/elements/1.1/"
   xmlns:cc="http://creativecommons.org/ns#"
   xmlns:rdf="http://www.w3.org/1999/02/22-rdf-syntax-ns#"
   xmlns:svg="http://www.w3.org/2000/svg"
   xmlns="http://www.w3.org/2000/svg"
   xmlns:sodipodi="http://sodipodi.sourceforge.net/DTD/sodipodi-0.dtd"
   xmlns:inkscape="http://www.inkscape.org/namespaces/inkscape"
   width="158.17802"
   height="232.11615"
   viewBox="0 0 158.17802 232.11615"
   id="svg2"
   version="1.1"
   inkscape:version="0.91 r13725"
   inkscape:export-filename="/home/dan/dev/org/astral/website/assets/img/apps.png"
   inkscape:export-xdpi="39.800102"
   inkscape:export-ydpi="39.800102"
   sodipodi:docname="apps.svg">
  <defs
     id="defs4" />
  <sodipodi:namedview
     id="base"
     pagecolor="#ffffff"
     bordercolor="#666666"
     borderopacity="1.0"
     inkscape:pageopacity="0.0"
     inkscape:pageshadow="2"
     inkscape:zoom="0.63104478"
     inkscape:cx="261.428"
     inkscape:cy="3.9654852"
     inkscape:document-units="px"
     inkscape:current-layer="layer1"
     showgrid="false"
     fit-margin-top="0"
     fit-margin-left="0"
     fit-margin-right="0"
     fit-margin-bottom="0"
     units="px" />
  <metadata
     id="metadata7">
    <rdf:RDF>
      <cc:Work
         rdf:about="">
        <dc:format>image/svg+xml</dc:format>
        <dc:type
           rdf:resource="http://purl.org/dc/dcmitype/StillImage" />
        <dc:title></dc:title>
      </cc:Work>
    </rdf:RDF>
  </metadata>
  <g
     inkscape:label="Layer 1"
     inkscape:groupmode="layer"
     id="layer1"
     transform="translate(-124.62774,-174.79125)">
    <path
       style="opacity:1;fill:#7fddbf;fill-opacity:1;stroke:none;stroke-width:10;stroke-linecap:round;stroke-linejoin:round;stroke-miterlimit:4;stroke-dasharray:none;stroke-dashoffset:0;stroke-opacity:1"
       d="m 244.46298,265.21984 0,-69.73375 -54.99743,54.99743 54.99743,14.73632 z"
       id="path8383"
       inkscape:connector-curvature="0" />
    <path
       style="opacity:1;fill:#7fddbf;fill-opacity:1;stroke:none;stroke-width:10;stroke-linecap:round;stroke-linejoin:round;stroke-miterlimit:4;stroke-dasharray:none;stroke-dashoffset:0;stroke-opacity:1"
       d="m 247.39504,266.00506 0,-73.45104 -2.93206,2.93207 0,69.73375 2.93206,0.78522 z"
       id="path7888-0-4-8"
       inkscape:connector-curvature="0" />
    <path
       style="opacity:1;fill:#4dcfa6;fill-opacity:1;stroke:none;stroke-width:10;stroke-linecap:round;stroke-linejoin:round;stroke-miterlimit:4;stroke-dasharray:none;stroke-dashoffset:0;stroke-opacity:1"
       d="m 244.46298,199.89336 0,-17.80036 c 0,-0.59107 -0.11874,-1.15308 -0.33413,-1.66401 -0.2154,-0.51093 -0.52733,-0.97089 -0.91303,-1.3566 -0.38571,-0.3857 -0.84568,-0.69763 -1.35661,-0.91303 -0.51092,-0.2154 -1.07294,-0.33414 -1.664,-0.33414 l -63.11198,0 31.54847,71.20063 35.83128,-49.13249 z"
       id="path8354"
       inkscape:connector-curvature="0" />
    <path
       style="opacity:1;fill:#4dcfa6;fill-opacity:1;stroke:none;stroke-width:10;stroke-linecap:round;stroke-linejoin:round;stroke-miterlimit:4;stroke-dasharray:none;stroke-dashoffset:0;stroke-opacity:1"
       d="m 247.39504,195.87285 0,-12.94868 c 0,-0.56322 -0.0566,-1.11273 -0.16456,-1.64313 -0.10798,-0.53039 -0.26758,-1.04185 -0.4728,-1.52868 -0.20523,-0.48683 -0.4559,-0.94912 -0.74764,-1.38166 -0.29173,-0.43254 -0.62405,-0.83539 -0.99155,-1.20289 -0.3675,-0.36751 -0.77036,-0.69983 -1.2029,-0.99156 -0.43253,-0.29173 -0.89482,-0.54241 -1.38166,-0.74763 -0.48683,-0.20523 -0.99829,-0.36483 -1.52868,-0.47281 -0.53039,-0.10798 -1.0799,-0.16456 -1.64312,-0.16456 l -63.52297,0 1.34407,3.03397 63.11198,0 c 0.59106,0 1.15308,0.11874 1.664,0.33414 0.51093,0.2154 0.9709,0.52733 1.35661,0.91303 0.3857,0.38571 0.69763,0.84567 0.91303,1.3566 0.21539,0.51093 0.33413,1.07294 0.33413,1.66401 l 0,17.80036 2.93206,-4.02051 z"
       id="path8352"
       inkscape:connector-curvature="0" />
    <path
       style="opacity:1;fill:#7fddbf;fill-opacity:1;stroke:none;stroke-width:10;stroke-linecap:round;stroke-linejoin:round;stroke-miterlimit:4;stroke-dasharray:none;stroke-dashoffset:0;stroke-opacity:1"
       d="m 125.39877,232.95715 0,-0.97735 -0.77103,0.77102 0.77103,0.20633 z"
       id="path8363"
       inkscape:connector-curvature="0" />
    <path
       style="opacity:1;fill:#7fddbf;fill-opacity:1;stroke:none;stroke-width:10;stroke-linecap:round;stroke-linejoin:round;stroke-miterlimit:4;stroke-dasharray:none;stroke-dashoffset:0;stroke-opacity:1"
       d="m 128.33083,233.74321 0,-4.69547 -2.93206,2.93206 0,0.97735 2.93206,0.78606 z"
       id="path8361"
       inkscape:connector-curvature="0" />
    <path
       style="opacity:1;fill:#7fddbf;fill-opacity:1;stroke:none;stroke-width:10;stroke-linecap:round;stroke-linejoin:round;stroke-miterlimit:4;stroke-dasharray:none;stroke-dashoffset:0;stroke-opacity:1"
       d="m 189.80553,177.82522 -10.25135,0 -51.22335,51.22252 0,4.69547 82.37169,22.07148 -20.89699,-77.98947 z"
       id="path8359"
       inkscape:connector-curvature="0" />
    <path
       style="opacity:1;fill:#7fddbf;fill-opacity:1;stroke:none;stroke-width:10;stroke-linecap:round;stroke-linejoin:round;stroke-miterlimit:4;stroke-dasharray:none;stroke-dashoffset:0;stroke-opacity:1"
       d="m 188.99274,174.79125 -6.40459,0 -3.03397,3.03397 10.25135,0 -0.81279,-3.03397 z"
       id="path8357"
       inkscape:connector-curvature="0" />
    <path
       style="opacity:1;fill:#4dcfa6;fill-opacity:1;stroke:none;stroke-width:10;stroke-linecap:round;stroke-linejoin:round;stroke-miterlimit:4;stroke-dasharray:none;stroke-dashoffset:0;stroke-opacity:1"
       d="m 128.33083,214.10008 0,61.14306 37.85282,10.14276 -23.06387,-86.07477 -14.78895,14.78895 z"
       id="path8308"
       inkscape:connector-curvature="0" />
    <path
       style="opacity:1;fill:#4dcfa6;fill-opacity:1;stroke:none;stroke-width:10;stroke-linecap:round;stroke-linejoin:round;stroke-miterlimit:4;stroke-dasharray:none;stroke-dashoffset:0;stroke-opacity:1"
       d="m 125.39877,217.03214 0,57.42578 2.93206,0.78522 0,-61.14306 -2.93206,2.93206 z"
       id="path7888"
       inkscape:connector-curvature="0" />
    <path
       sodipodi:type="star"
       style="opacity:1;fill:#2ba07b;fill-opacity:1;stroke:none;stroke-width:10;stroke-linecap:round;stroke-linejoin:round;stroke-miterlimit:4;stroke-dasharray:none;stroke-dashoffset:0;stroke-opacity:1"
       id="path7890-2-2"
       sodipodi:sides="3"
       sodipodi:cx="385.07568"
       sodipodi:cy="219.33899"
       sodipodi:r1="46.431206"
       sodipodi:r2="23.215605"
       sodipodi:arg1="0.52359878"
       sodipodi:arg2="1.5707963"
       inkscape:flatsided="true"
       inkscape:rounded="0"
       inkscape:randomized="0"
       d="m 425.28629,242.55459 -80.42121,0 40.2106,-69.64681 z"
       inkscape:transform-center-y="6.7572862"
       transform="matrix(0.79544222,-0.7953439,0.7953439,0.79544222,-291.51405,404.57998)"
       inkscape:transform-center-x="-6.7604118" />
    <path
       style="opacity:1;fill:#7fddbf;fill-opacity:1;stroke:none;stroke-width:10;stroke-linecap:round;stroke-linejoin:round;stroke-miterlimit:4;stroke-dasharray:none;stroke-dashoffset:0;stroke-opacity:1"
       d="m 244.46298,340.58216 0,-62.35015 -5.06469,-18.90219 -63.01174,63.01174 68.07643,18.2406 z"
       id="path8284"
       inkscape:connector-curvature="0" />
    <path
       style="opacity:1;fill:#7fddbf;fill-opacity:1;stroke:none;stroke-width:10;stroke-linecap:round;stroke-linejoin:round;stroke-miterlimit:4;stroke-dasharray:none;stroke-dashoffset:0;stroke-opacity:1"
       d="m 247.39504,341.36738 0,-52.19235 -2.93206,-10.94302 0,62.35015 2.93206,0.78522 z"
       id="path7888-0-4"
       inkscape:connector-curvature="0" />
    <path
       style="opacity:1;fill:#4dcfa6;fill-opacity:1;stroke:none;stroke-width:10;stroke-linecap:round;stroke-linejoin:round;stroke-miterlimit:4;stroke-dasharray:none;stroke-dashoffset:0;stroke-opacity:1"
       d="m 183.88043,349.80352 48.21277,0 c 1.08125,-0.11914 2.34269,-0.0591 3.6396,0.002 1.29691,0.0608 2.62995,0.12206 3.85344,0.005 0.61175,-0.0585 1.19582,-0.16156 1.73501,-0.33163 0.5392,-0.17008 1.03302,-0.40709 1.46353,-0.73344 0.4305,-0.32634 0.79776,-0.74155 1.08344,-1.26888 0.28568,-0.52734 0.49004,-1.16663 0.59476,-1.93968 l 0,-5.7054 c -22.70649,-6.14192 -45.41336,-12.28419 -68.11987,-18.42607 l 7.53732,28.39838 z"
       id="path8293"
       inkscape:connector-curvature="0" />
    <path
       style="opacity:1;fill:#4dcfa6;fill-opacity:1;stroke:none;stroke-width:10;stroke-linecap:round;stroke-linejoin:round;stroke-miterlimit:4;stroke-dasharray:none;stroke-dashoffset:0;stroke-opacity:1"
       d="m 189.82725,372.20747 c 0.12224,1.6e-4 0.24448,-1.4e-4 0.36672,0 14.89301,0.018 29.78295,-0.0304 44.6684,-0.16372 l 12.57695,-12.51765 c -0.0169,-1.03412 -0.0333,-2.09446 -0.0443,-3.0348 l 0,-15.86738 c -0.97731,-0.26436 -1.95474,-0.52838 -2.93206,-0.79274 l 0,5.7054 c -0.10472,0.77305 -0.30908,1.41234 -0.59476,1.93968 -0.28568,0.52733 -0.65294,0.94254 -1.08344,1.26888 -0.43051,0.32635 -0.92433,0.56336 -1.46353,0.73344 -0.53919,0.17007 -1.12326,0.2731 -1.73501,0.33163 -1.22349,0.11706 -2.55653,0.0558 -3.85344,-0.005 -1.29691,-0.0608 -2.55835,-0.12082 -3.6396,-0.002 l -48.21277,0 5.94682,22.40395 z"
       id="path7888-49-2"
       inkscape:connector-curvature="0" />
    <path
       style="opacity:1;fill:#7fddbf;fill-opacity:1;stroke:none;stroke-width:10;stroke-linecap:round;stroke-linejoin:round;stroke-miterlimit:4;stroke-dasharray:none;stroke-dashoffset:0;stroke-opacity:1"
       d="m 128.33083,323.49601 0,22.04057 c 0,0.59107 0.11874,1.15316 0.33414,1.66401 0.2154,0.51085 0.52732,0.97016 0.91303,1.35577 0.38571,0.3856 0.84567,0.69771 1.3566,0.91303 0.51093,0.21532 1.07294,0.33413 1.66401,0.33413 l 52.09879,0 -18.89801,-65.29974 -37.46856,38.99223 z"
       id="path8298"
       inkscape:connector-curvature="0" />
    <path
       style="opacity:1;fill:#7fddbf;fill-opacity:1;stroke:none;stroke-width:10;stroke-linecap:round;stroke-linejoin:round;stroke-miterlimit:4;stroke-dasharray:none;stroke-dashoffset:0;stroke-opacity:1"
       d="m 125.39877,326.54669 0,27.477 65.17361,16.07872 -5.87498,-20.29889 -52.09879,0 c -0.59107,0 -1.15308,-0.11881 -1.66401,-0.33413 -0.51093,-0.21532 -0.97089,-0.52743 -1.3566,-0.91303 -0.38571,-0.38561 -0.69763,-0.84492 -0.91303,-1.35577 -0.2154,-0.51085 -0.33414,-1.07294 -0.33414,-1.66401 l 0,-22.04057 -2.93206,3.05068 z"
       id="path7888-0-4-4"
       inkscape:connector-curvature="0" />
    <path
       style="opacity:1;fill:#2ba07b;fill-opacity:1;stroke:none;stroke-width:10;stroke-linecap:round;stroke-linejoin:round;stroke-miterlimit:4;stroke-dasharray:none;stroke-dashoffset:0;stroke-opacity:1"
       d="m 128.33083,274.56568 0,49.36304 38.93292,-38.92875 -38.93292,-10.43429 z"
       id="path8303"
       inkscape:connector-curvature="0" />
    <path
       style="opacity:1;fill:#2ba07b;fill-opacity:1;stroke:none;stroke-width:10;stroke-linecap:round;stroke-linejoin:round;stroke-miterlimit:4;stroke-dasharray:none;stroke-dashoffset:0;stroke-opacity:1"
       d="m 125.39877,273.77962 0,53.08032 2.93206,-2.93122 0,-49.36304 -2.93206,-0.78606 z"
       id="path7890-2-2-5"
       inkscape:connector-curvature="0" />
    <path
       style="opacity:1;fill:#2ba07b;fill-opacity:1;stroke:none;stroke-width:10;stroke-linecap:round;stroke-linejoin:round;stroke-miterlimit:4;stroke-dasharray:none;stroke-dashoffset:0;stroke-opacity:1"
       d="m 181.94076,177.82522 -45.0276,0 9.51291,35.51051 35.51469,-35.51051 z"
       id="path8323"
       inkscape:connector-curvature="0" />
    <path
       style="opacity:1;fill:#2ba07b;fill-opacity:1;stroke:none;stroke-width:10;stroke-linecap:round;stroke-linejoin:round;stroke-miterlimit:4;stroke-dasharray:none;stroke-dashoffset:0;stroke-opacity:1"
       d="m 184.97473,174.79125 -48.87436,0 0.81279,3.03397 45.0276,0 3.03397,-3.03397 z"
       id="path8321"
       inkscape:connector-curvature="0" />
    <path
       style="opacity:1;fill:#7fddbf;fill-opacity:1;stroke:none;stroke-width:10;stroke-linecap:round;stroke-linejoin:round;stroke-miterlimit:4;stroke-dasharray:none;stroke-dashoffset:0;stroke-opacity:1"
       d="m 128.33083,195.52868 0,19.25722 15.25591,-15.06796 -15.25591,-4.18926 z"
       id="path8313"
       inkscape:connector-curvature="0" />
    <path
       style="opacity:1;fill:#7fddbf;fill-opacity:1;stroke:none;stroke-width:10;stroke-linecap:round;stroke-linejoin:round;stroke-miterlimit:4;stroke-dasharray:none;stroke-dashoffset:0;stroke-opacity:1"
       d="m 125.39877,194.72341 0,22.95862 2.93206,-2.89613 0,-19.25722 -2.93206,-0.80527 z"
       id="path7888-0-4-0"
       inkscape:connector-curvature="0" />
    <path
       style="opacity:1;fill:#4dcfa6;fill-opacity:1;stroke:none;stroke-width:10;stroke-linecap:round;stroke-linejoin:round;stroke-miterlimit:4;stroke-dasharray:none;stroke-dashoffset:0;stroke-opacity:1"
       d="m 137.58562,177.82522 -4.98701,0 c -0.59107,0 -1.15308,0.11874 -1.66401,0.33414 -0.51093,0.2154 -0.9709,0.52733 -1.3566,0.91303 -0.38571,0.38571 -0.69763,0.84567 -0.91303,1.3566 -0.2154,0.51093 -0.33414,1.07294 -0.33414,1.66401 l 0,14.92845 14.83155,4.45907 -5.57676,-23.6553 z"
       id="path8318"
       inkscape:connector-curvature="0" />
    <path
       style="opacity:1;fill:#4dcfa6;fill-opacity:1;stroke:none;stroke-width:10;stroke-linecap:round;stroke-linejoin:round;stroke-miterlimit:4;stroke-dasharray:none;stroke-dashoffset:0;stroke-opacity:1"
       d="m 136.86973,174.79125 -3.33804,0 c -0.56322,0 -1.11273,0.0566 -1.64312,0.16456 -0.5304,0.10798 -1.04185,0.26758 -1.52869,0.47281 -0.48683,0.20522 -0.94912,0.4559 -1.38166,0.74763 -0.43253,0.29173 -0.83539,0.62405 -1.20289,0.99156 -0.36751,0.3675 -0.69983,0.77035 -0.99156,1.20289 -0.29173,0.43254 -0.54241,0.89483 -0.74763,1.38166 -0.20522,0.48683 -0.36482,0.99829 -0.47281,1.52868 -0.10798,0.5304 -0.16456,1.07991 -0.16456,1.64313 l 0,13.21515 2.93206,0.88213 0,-14.92845 c 0,-0.59107 0.11874,-1.15308 0.33414,-1.66401 0.2154,-0.51093 0.52732,-0.97089 0.91303,-1.3566 0.3857,-0.3857 0.84567,-0.69763 1.3566,-0.91303 0.51093,-0.2154 1.07294,-0.33414 1.66401,-0.33414 l 4.98701,0 -0.71589,-3.03397 z"
       id="path8316"
       inkscape:connector-curvature="0" />
    <path
       style="opacity:1;fill:#4dcfa6;fill-opacity:1;stroke:none;stroke-width:10;stroke-linecap:round;stroke-linejoin:round;stroke-miterlimit:4;stroke-dasharray:none;stroke-dashoffset:0;stroke-opacity:1"
       d="m 244.46298,284.33838 0,-20.09673 -5.74633,-1.55457 5.74633,21.6513 z"
       id="path8279"
       inkscape:connector-curvature="0" />
    <path
       style="opacity:1;fill:#4dcfa6;fill-opacity:1;stroke:none;stroke-width:10;stroke-linecap:round;stroke-linejoin:round;stroke-miterlimit:4;stroke-dasharray:none;stroke-dashoffset:0;stroke-opacity:1"
       d="m 247.39504,295.38582 0,-30.35143 -2.93206,-0.79274 0,20.09673 2.93206,11.04744 z"
       id="path7888-49-2-5"
       inkscape:connector-curvature="0" />
    <path
       inkscape:connector-curvature="0"
       style="opacity:1;fill:#303030;fill-opacity:1;stroke:none;stroke-width:10;stroke-linecap:round;stroke-linejoin:round;stroke-miterlimit:4;stroke-dasharray:none;stroke-dashoffset:0;stroke-opacity:1"
       d="m 133.53169,174.79125 c -4.50575,0 -8.13292,3.62717 -8.13292,8.13292 l 0,181.12867 c 0,4.50574 3.62717,8.13375 8.13292,8.13375 l 105.73044,0 c 4.50574,0 8.13291,-3.62801 8.13291,-8.13375 l 0,-181.12867 c 0,-4.50575 -3.62717,-8.13292 -8.13291,-8.13292 l -105.73044,0 z m -0.93308,3.03397 107.5966,0 c 2.36425,0 4.26777,1.90352 4.26777,4.26778 l 0,163.44358 c 0,2.36426 -1.90352,4.26694 -4.26777,4.26694 l -107.5966,0 c -2.36426,0 -4.26778,-1.90268 -4.26778,-4.26694 l 0,-163.44358 c 0,-2.36426 1.90352,-4.26778 4.26778,-4.26778 z"
       id="rect7869-8" />
    <g
       id="g11657"
       transform="matrix(0.42769659,0,0,0.42769659,22.494543,200.66979)">
      <rect
         y="31.493708"
         x="327.65042"
         height="408.84579"
         width="275.73318"
         id="rect11655"
         style="opacity:1;fill:#ffffff;fill-opacity:1;stroke:none;stroke-width:0.76300001;stroke-linecap:round;stroke-linejoin:round;stroke-miterlimit:4;stroke-dasharray:4.578, 4.578;stroke-dashoffset:0;stroke-opacity:1" />
      <g
         id="g11622">
        <rect
           style="fill:#f6f6fb;fill-opacity:1;stroke:none;stroke-opacity:1"
           id="rect7935"
           width="272.97336"
           height="109.36597"
           x="328.87234"
           y="24.535778" />
        <path
           style="fill:#2b4b5e;fill-opacity:1;stroke:none;stroke-opacity:1"
           d="m 376.85938,27.767578 -36.63086,0 c -1.38197,0 -2.69602,0.27763 -3.89063,0.78125 -1.1946,0.50362 -2.27005,1.232944 -3.17187,2.134766 -0.90183,0.901821 -1.6292,1.97727 -2.13282,3.171875 -0.50362,1.194604 -0.7832,2.508655 -0.7832,3.890625 l 0,382.148436 c 0,1.38197 0.27958,2.6962 0.7832,3.89063 0.50362,1.19442 1.23099,2.27029 2.13282,3.17187 0.90182,0.90158 1.97727,1.62938 3.17187,2.13281 1.19461,0.50344 2.50866,0.78125 3.89063,0.78125 l 36.63086,0 0,-402.103512 z"
           id="path11397"
           inkscape:connector-curvature="0" />
        <path
           style="fill:#2b4b5e;fill-opacity:1;stroke:none;stroke-opacity:1"
           d="m 331.00977,24.535156 c -0.71205,0.535738 -1.42783,1.066502 -2.05665,1.695313 -0.62344,0.623443 -1.14964,1.335711 -1.68164,2.041015 l 0,415.861326 49.5879,0 0,-14.26172 -36.63086,0 c -1.38197,0 -2.69602,-0.27781 -3.89063,-0.78125 -1.1946,-0.50343 -2.27005,-1.23123 -3.17187,-2.13281 -0.90183,-0.90158 -1.6292,-1.97745 -2.13282,-3.17187 -0.50362,-1.19443 -0.7832,-2.50866 -0.7832,-3.89063 l 0,-382.148436 c 0,-1.38197 0.27958,-2.696021 0.7832,-3.890625 0.50362,-1.194605 1.23099,-2.270054 2.13282,-3.171875 0.90182,-0.901822 1.97727,-1.631146 3.17187,-2.134766 1.19461,-0.50362 2.50866,-0.78125 3.89063,-0.78125 l 36.63086,0 0,-3.232422 -45.84961,0 z"
           id="rect7869"
           inkscape:connector-curvature="0" />
        <rect
           style="fill:#fcf6f6;fill-opacity:1;stroke:none;stroke-width:0.76300001;stroke-miterlimit:4;stroke-dasharray:4.578, 4.578;stroke-dashoffset:0;stroke-opacity:1"
           id="rect8161"
           width="203.25945"
           height="35.420551"
           x="387.21298"
           y="209.45963" />
        <circle
           style="fill:#dc7373;fill-opacity:1;stroke:none;stroke-width:2;stroke-miterlimit:4;stroke-dasharray:12, 12;stroke-dashoffset:0;stroke-opacity:1"
           id="path8193"
           cx="403.52017"
           cy="227.07468"
           r="3.5557468" />
        <rect
           style="fill:#5b69f4;fill-opacity:1;stroke:none;stroke-width:2;stroke-miterlimit:4;stroke-dasharray:12, 12;stroke-dashoffset:0;stroke-opacity:1"
           id="rect8364"
           width="24.521917"
           height="24.521917"
           x="339.25903"
           y="106.27552"
           ry="4.904367" />
        <rect
           style="fill:#5bf2f4;fill-opacity:1;stroke:none;stroke-width:2;stroke-miterlimit:4;stroke-dasharray:12, 12;stroke-dashoffset:0;stroke-opacity:1"
           id="rect8364-5"
           width="24.521917"
           height="24.521917"
           x="339.25903"
           y="71.999313"
           ry="4.904367" />
        <rect
           style="fill:#d4a3c8;fill-opacity:1;stroke:none;stroke-width:2;stroke-miterlimit:4;stroke-dasharray:12, 12;stroke-dashoffset:0;stroke-opacity:1"
           id="rect8213-6"
           width="18.473829"
           height="14.233932"
           x="457.2666"
           y="99.11618"
           ry="2.7256465" />
        <rect
           style="fill:#a3c6d4;fill-opacity:1;stroke:none;stroke-width:2;stroke-miterlimit:4;stroke-dasharray:12, 12;stroke-dashoffset:0;stroke-opacity:1"
           id="rect8213-6-8"
           width="18.473829"
           height="14.233932"
           x="434.86023"
           y="99.450623"
           ry="2.7256465" />
        <rect
           style="fill:#a3c6d4;fill-opacity:1;stroke:none;stroke-width:2;stroke-miterlimit:4;stroke-dasharray:12, 12;stroke-dashoffset:0;stroke-opacity:1"
           id="rect8213-6-8-0-1"
           width="56.932556"
           height="14.233932"
           x="479.45776"
           y="99.292969"
           ry="2.7256465" />
        <rect
           style="fill:#f9f9f9;fill-opacity:1;stroke:none;stroke-width:0.63312709;stroke-miterlimit:4;stroke-dasharray:3.7987627, 3.7987627;stroke-dashoffset:0;stroke-opacity:1"
           id="rect8161-7"
           width="203.38922"
           height="24.379229"
           x="387.42059"
           y="293.69571" />
        <rect
           style="fill:#f6f9fc;fill-opacity:1;stroke:none;stroke-width:0.76290411;stroke-miterlimit:4;stroke-dasharray:4.5774249, 4.5774249;stroke-dashoffset:0;stroke-opacity:1"
           id="rect8161-6"
           width="203.25945"
           height="35.420551"
           x="387.21298"
           y="251.74634" />
        <circle
           style="fill:#73a4dc;fill-opacity:1;stroke:none;stroke-width:2;stroke-miterlimit:4;stroke-dasharray:12, 12;stroke-dashoffset:0;stroke-opacity:1"
           id="path8193-5"
           cx="403.52017"
           cy="269.36133"
           r="3.5557468" />
        <circle
           style="fill:#ddecf1;fill-opacity:1;stroke:none;stroke-width:2;stroke-miterlimit:4;stroke-dasharray:12, 12;stroke-dashoffset:0;stroke-opacity:1"
           id="path10419"
           cx="484.05759"
           cy="67.390335"
           r="20.100231" />
        <rect
           style="fill:#467b99;fill-opacity:1;stroke:none;stroke-width:2;stroke-miterlimit:4;stroke-dasharray:12, 12;stroke-dashoffset:0;stroke-opacity:1"
           id="rect8364-5-5"
           width="24.521917"
           height="24.521917"
           x="339.25903"
           y="396.44003"
           ry="4.904367" />
        <path
           inkscape:connector-curvature="0"
           style="opacity:1;fill:#303030;fill-opacity:1;stroke:none;stroke-width:10;stroke-linecap:round;stroke-linejoin:round;stroke-miterlimit:4;stroke-dasharray:none;stroke-dashoffset:0;stroke-opacity:1"
           d="m 342.41064,20.67416 c -10.53491,0 -19.01562,8.48071 -19.01562,19.01562 l 0,423.49805 c 0,10.53491 8.48071,19.01758 19.01562,19.01758 l 247.20899,0 c 10.53491,0 19.01562,-8.48267 19.01562,-19.01758 l 0,-423.49805 c 0,-10.53491 -8.48071,-19.01562 -19.01562,-19.01562 l -247.20899,0 z m -2.18164,7.09375 251.57227,0 c 5.52788,0 9.97851,4.45063 9.97851,9.97851 l 0,382.14844 c 0,5.52788 -4.45063,9.97656 -9.97851,9.97656 l -251.57227,0 c -5.52788,0 -9.97851,-4.44868 -9.97851,-9.97656 l 0,-382.14844 c 0,-5.52788 4.45063,-9.97851 9.97851,-9.97851 z"
           id="rect7869-8-1" />
        <rect
           style="fill:#f45b5b;fill-opacity:1;stroke:none;stroke-width:2;stroke-miterlimit:4;stroke-dasharray:12, 12;stroke-dashoffset:0;stroke-opacity:1"
           id="rect8364-5-2"
           width="24.521917"
           height="24.521917"
           x="339.25903"
           y="37.999313"
           ry="4.904367" />
        <rect
           style="opacity:1;fill:#81f6b6;fill-opacity:1;stroke:none;stroke-width:10;stroke-linecap:round;stroke-linejoin:round;stroke-miterlimit:4;stroke-dasharray:none;stroke-dashoffset:0;stroke-opacity:1"
           id="rect11456"
           width="204.49736"
           height="57.707474"
           x="386.02377"
           y="144.50238"
           ry="2.7256501" />
        <rect
           style="fill:#f6df81;fill-opacity:1;stroke:none;stroke-width:2;stroke-miterlimit:4;stroke-dasharray:12, 12;stroke-dashoffset:0;stroke-opacity:1"
           id="rect8213-6-4"
           width="23.072155"
           height="14.233932"
           x="387.05057"
           y="330.48206"
           ry="2.7256463" />
        <rect
           style="fill:#f6df81;fill-opacity:1;stroke:none;stroke-width:2;stroke-miterlimit:4;stroke-dasharray:12, 12;stroke-dashoffset:0;stroke-opacity:1"
           id="rect8213-6-4-4"
           width="23.072155"
           height="14.233932"
           x="387.05057"
           y="330.48206"
           ry="2.7256463" />
        <rect
           style="fill:#81f6b6;fill-opacity:1;stroke:none;stroke-width:2;stroke-miterlimit:4;stroke-dasharray:12, 12;stroke-dashoffset:0;stroke-opacity:1"
           id="rect8213-6-4-6"
           width="23.072155"
           height="14.233932"
           x="413.05057"
           y="330.48206"
           ry="2.7256463" />
        <rect
           style="fill:#f6a781;fill-opacity:1;stroke:none;stroke-width:2;stroke-miterlimit:4;stroke-dasharray:12, 12;stroke-dashoffset:0;stroke-opacity:1"
           id="rect8213-6-4-0"
           width="23.072155"
           height="14.233932"
           x="465.05057"
           y="330.48206"
           ry="2.7256463" />
        <rect
           style="fill:#81f6b6;fill-opacity:1;stroke:none;stroke-width:2;stroke-miterlimit:4;stroke-dasharray:12, 12;stroke-dashoffset:0;stroke-opacity:1"
           id="rect8213-6-4-6-7"
           width="23.072155"
           height="14.233932"
           x="439.05057"
           y="330.48206"
           ry="2.7256463" />
        <rect
           style="fill:#f6df81;fill-opacity:1;stroke:none;stroke-width:2;stroke-miterlimit:4;stroke-dasharray:12, 12;stroke-dashoffset:0;stroke-opacity:1"
           id="rect8213-6-4-4-7"
           width="23.072155"
           height="14.233932"
           x="491.05054"
           y="330.48206"
           ry="2.7256463" />
        <rect
           style="opacity:1;fill:#e7e7e7;fill-opacity:1;stroke:none;stroke-width:0.76300001;stroke-linecap:round;stroke-linejoin:round;stroke-miterlimit:4;stroke-dasharray:4.578, 4.578;stroke-dashoffset:0;stroke-opacity:1"
           id="rect11504"
           width="204.81906"
           height="3.7350774"
           x="387.05652"
           y="357.31586" />
        <rect
           style="opacity:1;fill:#e7e7e7;fill-opacity:1;stroke:none;stroke-width:0.76300001;stroke-linecap:round;stroke-linejoin:round;stroke-miterlimit:4;stroke-dasharray:4.578, 4.578;stroke-dashoffset:0;stroke-opacity:1"
           id="rect11504-1"
           width="204.81906"
           height="3.7350774"
           x="387.05652"
           y="365.6012" />
        <rect
           style="opacity:1;fill:#e7e7e7;fill-opacity:1;stroke:none;stroke-width:0.76300001;stroke-linecap:round;stroke-linejoin:round;stroke-miterlimit:4;stroke-dasharray:4.578, 4.578;stroke-dashoffset:0;stroke-opacity:1"
           id="rect11504-1-8"
           width="204.81906"
           height="3.7350774"
           x="387.05652"
           y="373.88654" />
        <rect
           style="opacity:1;fill:#e7e7e7;fill-opacity:1;stroke:none;stroke-width:0.76300001;stroke-linecap:round;stroke-linejoin:round;stroke-miterlimit:4;stroke-dasharray:4.578, 4.578;stroke-dashoffset:0;stroke-opacity:1"
           id="rect11504-1-8-4"
           width="95.080414"
           height="3.7350774"
           x="387.05652"
           y="382.17184" />
        <rect
           style="opacity:1;fill:#ffffff;fill-opacity:1;stroke:none;stroke-width:0.76300001;stroke-linecap:round;stroke-linejoin:round;stroke-miterlimit:4;stroke-dasharray:4.578, 4.578;stroke-dashoffset:0;stroke-opacity:1"
           id="rect11504-4"
           width="189.13159"
           height="3.7350774"
           x="393.05652"
           y="153.31584" />
        <rect
           style="opacity:1;fill:#ffffff;fill-opacity:1;stroke:none;stroke-width:0.76300001;stroke-linecap:round;stroke-linejoin:round;stroke-miterlimit:4;stroke-dasharray:4.578, 4.578;stroke-dashoffset:0;stroke-opacity:1"
           id="rect11504-1-0"
           width="189.13159"
           height="3.7350774"
           x="393.05652"
           y="161.6012" />
        <rect
           style="opacity:1;fill:#ffffff;fill-opacity:1;stroke:none;stroke-width:0.76300001;stroke-linecap:round;stroke-linejoin:round;stroke-miterlimit:4;stroke-dasharray:4.578, 4.578;stroke-dashoffset:0;stroke-opacity:1"
           id="rect11504-1-8-4-3"
           width="172.64423"
           height="3.7350774"
           x="393.05652"
           y="170.17184" />
      </g>
    </g>
  </g>
</svg>
