<?xml version="1.0" encoding="UTF-8" standalone="no"?>
<!-- Created with Inkscape (http://www.inkscape.org/) -->

<svg
   xmlns:dc="http://purl.org/dc/elements/1.1/"
   xmlns:cc="http://creativecommons.org/ns#"
   xmlns:rdf="http://www.w3.org/1999/02/22-rdf-syntax-ns#"
   xmlns:svg="http://www.w3.org/2000/svg"
   xmlns="http://www.w3.org/2000/svg"
   xmlns:sodipodi="http://sodipodi.sourceforge.net/DTD/sodipodi-0.dtd"
   xmlns:inkscape="http://www.inkscape.org/namespaces/inkscape"
   width="104.37622mm"
   height="153.16544mm"
   viewBox="0 0 369.837 542.71217"
   id="svg2"
   version="1.1"
   inkscape:version="0.91 r13725"
   inkscape:export-filename="/home/dan/dev/org/astral/website/assets/img/apps.png"
   inkscape:export-xdpi="39.800102"
   inkscape:export-ydpi="39.800102"
   sodipodi:docname="apps.svg">
  <defs
     id="defs4" />
  <sodipodi:namedview
     id="base"
     pagecolor="#ffffff"
     bordercolor="#666666"
     borderopacity="1.0"
     inkscape:pageopacity="0.0"
     inkscape:pageshadow="2"
     inkscape:zoom="0.63104478"
     inkscape:cx="367.25748"
     inkscape:cy="159.26348"
     inkscape:document-units="px"
     inkscape:current-layer="layer1"
     showgrid="false"
     fit-margin-top="0"
     fit-margin-left="0"
     fit-margin-right="0"
     fit-margin-bottom="0" />
  <metadata
     id="metadata7">
    <rdf:RDF>
      <cc:Work
         rdf:about="">
        <dc:format>image/svg+xml</dc:format>
        <dc:type
           rdf:resource="http://purl.org/dc/dcmitype/StillImage" />
        <dc:title></dc:title>
      </cc:Work>
    </rdf:RDF>
  </metadata>
  <g
     inkscape:label="Layer 1"
     inkscape:groupmode="layer"
     id="layer1"
     transform="translate(-18.79826,-19.493237)">
    <path
       style="opacity:1;fill:#7fddbf;fill-opacity:1;stroke:none;stroke-width:10;stroke-linecap:round;stroke-linejoin:round;stroke-miterlimit:4;stroke-dasharray:none;stroke-dashoffset:0;stroke-opacity:1"
       d="m 298.98576,230.92488 0,-163.044923 -128.58984,128.589843 128.58984,34.45508 z"
       id="path8383"
       inkscape:connector-curvature="0" />
    <path
       style="opacity:1;fill:#7fddbf;fill-opacity:1;stroke:none;stroke-width:10;stroke-linecap:round;stroke-linejoin:round;stroke-miterlimit:4;stroke-dasharray:none;stroke-dashoffset:0;stroke-opacity:1"
       d="m 305.84123,232.76081 0,-171.736323 -6.85547,6.85547 0,163.044923 6.85547,1.83593 z"
       id="path7888-0-4-8"
       inkscape:connector-curvature="0" />
    <path
       style="opacity:1;fill:#4dcfa6;fill-opacity:1;stroke:none;stroke-width:10;stroke-linecap:round;stroke-linejoin:round;stroke-miterlimit:4;stroke-dasharray:none;stroke-dashoffset:0;stroke-opacity:1"
       d="m 298.98576,78.184637 0,-41.61914 c 0,-1.38197 -0.27763,-2.69602 -0.78124,-3.89062 -0.50362,-1.19461 -1.23295,-2.27006 -2.13477,-3.17188 -0.90182,-0.90182 -1.97727,-1.63114 -3.17188,-2.13476 -1.1946,-0.50362 -2.50865,-0.78125 -3.89062,-0.78125 l -147.5625,0 73.76367,166.474613 83.77734,-114.876963 z"
       id="path8354"
       inkscape:connector-curvature="0" />
    <path
       style="opacity:1;fill:#4dcfa6;fill-opacity:1;stroke:none;stroke-width:10;stroke-linecap:round;stroke-linejoin:round;stroke-miterlimit:4;stroke-dasharray:none;stroke-dashoffset:0;stroke-opacity:1"
       d="m 305.84123,68.784247 0,-30.27539 c 0,-1.31686 -0.13229,-2.60168 -0.38476,-3.8418 -0.25247,-1.24011 -0.62563,-2.43595 -1.10547,-3.57421 -0.47984,-1.13827 -1.06595,-2.21916 -1.74805,-3.23047 -0.6821,-1.01132 -1.4591,-1.95324 -2.31836,-2.8125 -0.85926,-0.85926 -1.80118,-1.63626 -2.8125,-2.31836 -1.01131,-0.6821 -2.0922,-1.26821 -3.23047,-1.74805 -1.13826,-0.47984 -2.3341,-0.853 -3.57421,-1.10547 -1.24012,-0.25247 -2.52494,-0.38476 -3.8418,-0.38476 l -148.52344,0 3.14258,7.09375 147.5625,0 c 1.38197,0 2.69602,0.27763 3.89062,0.78125 1.19461,0.50362 2.27006,1.23294 3.17188,2.13476 0.90182,0.90182 1.63115,1.97727 2.13477,3.17188 0.50361,1.1946 0.78124,2.50865 0.78124,3.89062 l 0,41.61914 6.85547,-9.40039 z"
       id="path8352"
       inkscape:connector-curvature="0" />
    <path
       style="opacity:1;fill:#7fddbf;fill-opacity:1;stroke:none;stroke-width:10;stroke-linecap:round;stroke-linejoin:round;stroke-miterlimit:4;stroke-dasharray:none;stroke-dashoffset:0;stroke-opacity:1"
       d="m 20.601,155.49128 0,-2.28515 -1.80274,1.80273 1.80274,0.48242 z"
       id="path8363"
       inkscape:connector-curvature="0" />
    <path
       style="opacity:1;fill:#7fddbf;fill-opacity:1;stroke:none;stroke-width:10;stroke-linecap:round;stroke-linejoin:round;stroke-miterlimit:4;stroke-dasharray:none;stroke-dashoffset:0;stroke-opacity:1"
       d="m 27.45647,157.32917 0,-10.97851 -6.85547,6.85547 0,2.28515 6.85547,1.83789 z"
       id="path8361"
       inkscape:connector-curvature="0" />
    <path
       style="opacity:1;fill:#7fddbf;fill-opacity:1;stroke:none;stroke-width:10;stroke-linecap:round;stroke-linejoin:round;stroke-miterlimit:4;stroke-dasharray:none;stroke-dashoffset:0;stroke-opacity:1"
       d="m 171.19084,26.586987 -23.96875,0 -119.76562,119.763673 0,10.97851 192.59375,51.60547 -48.85938,-182.347653 z"
       id="path8359"
       inkscape:connector-curvature="0" />
    <path
       style="opacity:1;fill:#7fddbf;fill-opacity:1;stroke:none;stroke-width:10;stroke-linecap:round;stroke-linejoin:round;stroke-miterlimit:4;stroke-dasharray:none;stroke-dashoffset:0;stroke-opacity:1"
       d="m 169.29045,19.493237 -14.97461,0 -7.09375,7.09375 23.96875,0 -1.90039,-7.09375 z"
       id="path8357"
       inkscape:connector-curvature="0" />
    <path
       style="opacity:1;fill:#4dcfa6;fill-opacity:1;stroke:none;stroke-width:10;stroke-linecap:round;stroke-linejoin:round;stroke-miterlimit:4;stroke-dasharray:none;stroke-dashoffset:0;stroke-opacity:1"
       d="m 27.45647,111.40144 0,142.95898 88.5039,23.71485 L 62.03459,76.823307 27.45647,111.40144 Z"
       id="path8308"
       inkscape:connector-curvature="0" />
    <path
       style="opacity:1;fill:#4dcfa6;fill-opacity:1;stroke:none;stroke-width:10;stroke-linecap:round;stroke-linejoin:round;stroke-miterlimit:4;stroke-dasharray:none;stroke-dashoffset:0;stroke-opacity:1"
       d="m 20.601,118.25691 0,134.26758 6.85547,1.83593 0,-142.95898 -6.85547,6.85547 z"
       id="path7888"
       inkscape:connector-curvature="0" />
    <path
       sodipodi:type="star"
       style="opacity:1;fill:#2ba07b;fill-opacity:1;stroke:none;stroke-width:10;stroke-linecap:round;stroke-linejoin:round;stroke-miterlimit:4;stroke-dasharray:none;stroke-dashoffset:0;stroke-opacity:1"
       id="path7890-2-2"
       sodipodi:sides="3"
       sodipodi:cx="385.07568"
       sodipodi:cy="219.33899"
       sodipodi:r1="46.431206"
       sodipodi:r2="23.215605"
       sodipodi:arg1="0.52359878"
       sodipodi:arg2="1.5707963"
       inkscape:flatsided="true"
       inkscape:rounded="0"
       inkscape:randomized="0"
       d="m 425.28629,242.55459 -80.42121,0 40.2106,-69.64681 z"
       inkscape:transform-center-y="15.799264"
       transform="matrix(1.8598283,-1.8595984,1.8595984,1.8598283,-954.18541,556.76367)"
       inkscape:transform-center-x="-15.806553" />
    <path
       style="opacity:1;fill:#7fddbf;fill-opacity:1;stroke:none;stroke-width:10;stroke-linecap:round;stroke-linejoin:round;stroke-miterlimit:4;stroke-dasharray:none;stroke-dashoffset:0;stroke-opacity:1"
       d="m 298.98576,407.12996 0,-145.78126 -11.84179,-44.19531 -147.32813,147.32813 159.16992,42.64844 z"
       id="path8284"
       inkscape:connector-curvature="0" />
    <path
       style="opacity:1;fill:#7fddbf;fill-opacity:1;stroke:none;stroke-width:10;stroke-linecap:round;stroke-linejoin:round;stroke-miterlimit:4;stroke-dasharray:none;stroke-dashoffset:0;stroke-opacity:1"
       d="m 305.84123,408.96589 0,-122.03125 -6.85547,-25.58594 0,145.78126 6.85547,1.83593 z"
       id="path7888-0-4"
       inkscape:connector-curvature="0" />
    <path
       style="opacity:1;fill:#4dcfa6;fill-opacity:1;stroke:none;stroke-width:10;stroke-linecap:round;stroke-linejoin:round;stroke-miterlimit:4;stroke-dasharray:none;stroke-dashoffset:0;stroke-opacity:1"
       d="m 157.33733,428.6905 112.72656,0 c 2.52809,-0.27857 5.47745,-0.13823 8.50977,0.004 3.03231,0.14213 6.1491,0.28541 9.00976,0.0117 1.43033,-0.13685 2.79595,-0.37774 4.05664,-0.77539 1.26069,-0.39766 2.41531,-0.95182 3.42188,-1.71485 1.00656,-0.76302 1.86525,-1.73383 2.5332,-2.96679 0.66795,-1.23297 1.14576,-2.72769 1.39062,-4.53516 l 0,-13.33984 C 245.89556,391.01372 192.8045,376.65244 139.71428,362.29206 l 17.62305,66.39844 z"
       id="path8293"
       inkscape:connector-curvature="0" />
    <path
       style="opacity:1;fill:#4dcfa6;fill-opacity:1;stroke:none;stroke-width:10;stroke-linecap:round;stroke-linejoin:round;stroke-miterlimit:4;stroke-dasharray:none;stroke-dashoffset:0;stroke-opacity:1"
       d="m 171.24162,481.07331 c 0.28582,3.6e-4 0.57161,-3.4e-4 0.85743,0 34.82144,0.042 69.63569,-0.0711 104.43945,-0.38281 l 29.40625,-29.26758 c -0.0394,-2.4179 -0.0779,-4.89707 -0.10352,-7.0957 l 0,-37.09961 c -2.28507,-0.61809 -4.57039,-1.23542 -6.85547,-1.85351 l 0,13.33984 c -0.24486,1.80747 -0.72267,3.30219 -1.39062,4.53516 -0.66795,1.23296 -1.52664,2.20377 -2.5332,2.96679 -1.00657,0.76303 -2.16119,1.31719 -3.42188,1.71485 -1.26069,0.39765 -2.62631,0.63854 -4.05664,0.77539 -2.86066,0.27369 -5.97745,0.13041 -9.00976,-0.0117 -3.03232,-0.14214 -5.98168,-0.28248 -8.50977,-0.004 l -112.72656,0 13.90429,52.38281 z"
       id="path7888-49-2"
       inkscape:connector-curvature="0" />
    <path
       style="opacity:1;fill:#7fddbf;fill-opacity:1;stroke:none;stroke-width:10;stroke-linecap:round;stroke-linejoin:round;stroke-miterlimit:4;stroke-dasharray:none;stroke-dashoffset:0;stroke-opacity:1"
       d="m 27.45647,367.18074 0,51.5332 c 0,1.38197 0.27763,2.6962 0.78125,3.89062 0.50362,1.19443 1.23294,2.26835 2.13476,3.16993 0.90183,0.90157 1.97727,1.63132 3.17188,2.13476 1.1946,0.50344 2.50865,0.78125 3.89062,0.78125 l 121.8125,0 -44.18554,-152.67773 -87.60547,91.16797 z"
       id="path8298"
       inkscape:connector-curvature="0" />
    <path
       style="opacity:1;fill:#7fddbf;fill-opacity:1;stroke:none;stroke-width:10;stroke-linecap:round;stroke-linejoin:round;stroke-miterlimit:4;stroke-dasharray:none;stroke-dashoffset:0;stroke-opacity:1"
       d="m 20.601,374.31355 0,64.24414 152.38281,37.59375 -13.73633,-47.46094 -121.8125,0 c -1.38197,0 -2.69602,-0.27781 -3.89062,-0.78125 -1.19461,-0.50344 -2.27005,-1.23319 -3.17188,-2.13476 -0.90182,-0.90158 -1.63114,-1.9755 -2.13476,-3.16993 -0.50362,-1.19442 -0.78125,-2.50865 -0.78125,-3.89062 l 0,-51.5332 -6.85547,7.13281 z"
       id="path7888-0-4-4"
       inkscape:connector-curvature="0" />
    <path
       style="opacity:1;fill:#2ba07b;fill-opacity:1;stroke:none;stroke-width:10;stroke-linecap:round;stroke-linejoin:round;stroke-miterlimit:4;stroke-dasharray:none;stroke-dashoffset:0;stroke-opacity:1"
       d="m 27.45647,252.77644 0,115.41602 91.02929,-91.01954 -91.02929,-24.39648 z"
       id="path8303"
       inkscape:connector-curvature="0" />
    <path
       style="opacity:1;fill:#2ba07b;fill-opacity:1;stroke:none;stroke-width:10;stroke-linecap:round;stroke-linejoin:round;stroke-miterlimit:4;stroke-dasharray:none;stroke-dashoffset:0;stroke-opacity:1"
       d="m 20.601,250.93855 0,124.10742 6.85547,-6.85351 0,-115.41602 -6.85547,-1.83789 z"
       id="path7890-2-2-5"
       inkscape:connector-curvature="0" />
    <path
       style="opacity:1;fill:#2ba07b;fill-opacity:1;stroke:none;stroke-width:10;stroke-linecap:round;stroke-linejoin:round;stroke-miterlimit:4;stroke-dasharray:none;stroke-dashoffset:0;stroke-opacity:1"
       d="m 152.80217,26.586987 -105.2793,0 22.24219,83.027343 83.03711,-83.027343 z"
       id="path8323"
       inkscape:connector-curvature="0" />
    <path
       style="opacity:1;fill:#2ba07b;fill-opacity:1;stroke:none;stroke-width:10;stroke-linecap:round;stroke-linejoin:round;stroke-miterlimit:4;stroke-dasharray:none;stroke-dashoffset:0;stroke-opacity:1"
       d="m 159.89592,19.493237 -114.27344,0 1.90039,7.09375 105.2793,0 7.09375,-7.09375 z"
       id="path8321"
       inkscape:connector-curvature="0" />
    <path
       style="opacity:1;fill:#7fddbf;fill-opacity:1;stroke:none;stroke-width:10;stroke-linecap:round;stroke-linejoin:round;stroke-miterlimit:4;stroke-dasharray:none;stroke-dashoffset:0;stroke-opacity:1"
       d="m 27.45647,67.979557 0,45.025403 35.66992,-35.230473 -35.66992,-9.79493 z"
       id="path8313"
       inkscape:connector-curvature="0" />
    <path
       style="opacity:1;fill:#7fddbf;fill-opacity:1;stroke:none;stroke-width:10;stroke-linecap:round;stroke-linejoin:round;stroke-miterlimit:4;stroke-dasharray:none;stroke-dashoffset:0;stroke-opacity:1"
       d="m 20.601,66.096747 0,53.679693 6.85547,-6.77148 0,-45.025403 -6.85547,-1.88281 z"
       id="path7888-0-4-0"
       inkscape:connector-curvature="0" />
    <path
       style="opacity:1;fill:#4dcfa6;fill-opacity:1;stroke:none;stroke-width:10;stroke-linecap:round;stroke-linejoin:round;stroke-miterlimit:4;stroke-dasharray:none;stroke-dashoffset:0;stroke-opacity:1"
       d="m 49.09514,26.586987 -11.66016,0 c -1.38197,0 -2.69602,0.27763 -3.89062,0.78125 -1.19461,0.50362 -2.27006,1.23294 -3.17188,2.13476 -0.90182,0.90182 -1.63114,1.97727 -2.13476,3.17188 -0.50362,1.1946 -0.78125,2.50865 -0.78125,3.89062 l 0,34.9043 34.67773,10.42578 -13.03906,-55.30859 z"
       id="path8318"
       inkscape:connector-curvature="0" />
    <path
       style="opacity:1;fill:#4dcfa6;fill-opacity:1;stroke:none;stroke-width:10;stroke-linecap:round;stroke-linejoin:round;stroke-miterlimit:4;stroke-dasharray:none;stroke-dashoffset:0;stroke-opacity:1"
       d="m 47.42131,19.493237 -7.80469,0 c -1.31686,0 -2.60167,0.13229 -3.84179,0.38476 -1.24012,0.25247 -2.43595,0.62563 -3.57422,1.10547 -1.13827,0.47984 -2.21915,1.06595 -3.23047,1.74805 -1.01132,0.6821 -1.95324,1.4591 -2.8125,2.31836 -0.85926,0.85926 -1.63626,1.80118 -2.31836,2.8125 -0.6821,1.01131 -1.26821,2.0922 -1.74805,3.23047 -0.47983,1.13826 -0.85299,2.3341 -1.10547,3.57421 -0.25247,1.24012 -0.38476,2.52494 -0.38476,3.8418 l 0,30.89844 6.85547,2.0625 0,-34.9043 c 0,-1.38197 0.27763,-2.69602 0.78125,-3.89062 0.50362,-1.19461 1.23294,-2.27006 2.13476,-3.17188 0.90182,-0.90182 1.97727,-1.63114 3.17188,-2.13476 1.1946,-0.50362 2.50865,-0.78125 3.89062,-0.78125 l 11.66016,0 -1.67383,-7.09375 z"
       id="path8316"
       inkscape:connector-curvature="0" />
    <path
       style="opacity:1;fill:#4dcfa6;fill-opacity:1;stroke:none;stroke-width:10;stroke-linecap:round;stroke-linejoin:round;stroke-miterlimit:4;stroke-dasharray:none;stroke-dashoffset:0;stroke-opacity:1"
       d="m 298.98576,275.62605 0,-46.98828 -13.43554,-3.63477 13.43554,50.62305 z"
       id="path8279"
       inkscape:connector-curvature="0" />
    <path
       style="opacity:1;fill:#4dcfa6;fill-opacity:1;stroke:none;stroke-width:10;stroke-linecap:round;stroke-linejoin:round;stroke-miterlimit:4;stroke-dasharray:none;stroke-dashoffset:0;stroke-opacity:1"
       d="m 305.84123,301.45613 0,-70.96485 -6.85547,-1.85351 0,46.98828 6.85547,25.83008 z"
       id="path7888-49-2-5"
       inkscape:connector-curvature="0" />
    <path
       inkscape:connector-curvature="0"
       style="opacity:1;fill:#303030;fill-opacity:1;stroke:none;stroke-width:10;stroke-linecap:round;stroke-linejoin:round;stroke-miterlimit:4;stroke-dasharray:none;stroke-dashoffset:0;stroke-opacity:1"
       d="m 39.61662,19.493237 c -10.53491,0 -19.01562,8.48071 -19.01562,19.01562 l 0,423.498053 c 0,10.53491 8.48071,19.01758 19.01562,19.01758 l 247.20899,0 c 10.53491,0 19.01562,-8.48267 19.01562,-19.01758 l 0,-423.498053 c 0,-10.53491 -8.48071,-19.01562 -19.01562,-19.01562 l -247.20899,0 z m -2.18164,7.09375 251.57227,0 c 5.52788,0 9.97851,4.45063 9.97851,9.97851 l 0,382.148443 c 0,5.52788 -4.45063,9.97656 -9.97851,9.97656 l -251.57227,0 c -5.52788,0 -9.97851,-4.44868 -9.97851,-9.97656 l 0,-382.148443 c 0,-5.52788 4.45063,-9.97851 9.97851,-9.97851 z"
       id="rect7869-8" />
    <g
       id="g11657"
       transform="translate(-220,80)">
      <rect
         y="31.493708"
         x="327.65042"
         height="408.84579"
         width="275.73318"
         id="rect11655"
         style="opacity:1;fill:#ffffff;fill-opacity:1;stroke:none;stroke-width:0.76300001;stroke-linecap:round;stroke-linejoin:round;stroke-miterlimit:4;stroke-dasharray:4.578, 4.578;stroke-dashoffset:0;stroke-opacity:1" />
      <g
         id="g11622">
        <rect
           style="fill:#f6f6fb;fill-opacity:1;stroke:none;stroke-opacity:1"
           id="rect7935"
           width="272.97336"
           height="109.36597"
           x="328.87234"
           y="24.535778" />
        <path
           style="fill:#2b4b5e;fill-opacity:1;stroke:none;stroke-opacity:1"
           d="m 376.85938,27.767578 -36.63086,0 c -1.38197,0 -2.69602,0.27763 -3.89063,0.78125 -1.1946,0.50362 -2.27005,1.232944 -3.17187,2.134766 -0.90183,0.901821 -1.6292,1.97727 -2.13282,3.171875 -0.50362,1.194604 -0.7832,2.508655 -0.7832,3.890625 l 0,382.148436 c 0,1.38197 0.27958,2.6962 0.7832,3.89063 0.50362,1.19442 1.23099,2.27029 2.13282,3.17187 0.90182,0.90158 1.97727,1.62938 3.17187,2.13281 1.19461,0.50344 2.50866,0.78125 3.89063,0.78125 l 36.63086,0 0,-402.103512 z"
           id="path11397"
           inkscape:connector-curvature="0" />
        <path
           style="fill:#2b4b5e;fill-opacity:1;stroke:none;stroke-opacity:1"
           d="m 331.00977,24.535156 c -0.71205,0.535738 -1.42783,1.066502 -2.05665,1.695313 -0.62344,0.623443 -1.14964,1.335711 -1.68164,2.041015 l 0,415.861326 49.5879,0 0,-14.26172 -36.63086,0 c -1.38197,0 -2.69602,-0.27781 -3.89063,-0.78125 -1.1946,-0.50343 -2.27005,-1.23123 -3.17187,-2.13281 -0.90183,-0.90158 -1.6292,-1.97745 -2.13282,-3.17187 -0.50362,-1.19443 -0.7832,-2.50866 -0.7832,-3.89063 l 0,-382.148436 c 0,-1.38197 0.27958,-2.696021 0.7832,-3.890625 0.50362,-1.194605 1.23099,-2.270054 2.13282,-3.171875 0.90182,-0.901822 1.97727,-1.631146 3.17187,-2.134766 1.19461,-0.50362 2.50866,-0.78125 3.89063,-0.78125 l 36.63086,0 0,-3.232422 -45.84961,0 z"
           id="rect7869"
           inkscape:connector-curvature="0" />
        <rect
           style="fill:#fcf6f6;fill-opacity:1;stroke:none;stroke-width:0.76300001;stroke-miterlimit:4;stroke-dasharray:4.578, 4.578;stroke-dashoffset:0;stroke-opacity:1"
           id="rect8161"
           width="203.25945"
           height="35.420551"
           x="387.21298"
           y="209.45963" />
        <circle
           style="fill:#dc7373;fill-opacity:1;stroke:none;stroke-width:2;stroke-miterlimit:4;stroke-dasharray:12, 12;stroke-dashoffset:0;stroke-opacity:1"
           id="path8193"
           cx="403.52017"
           cy="227.07468"
           r="3.5557468" />
        <rect
           style="fill:#5b69f4;fill-opacity:1;stroke:none;stroke-width:2;stroke-miterlimit:4;stroke-dasharray:12, 12;stroke-dashoffset:0;stroke-opacity:1"
           id="rect8364"
           width="24.521917"
           height="24.521917"
           x="339.25903"
           y="106.27552"
           ry="4.904367" />
        <rect
           style="fill:#5bf2f4;fill-opacity:1;stroke:none;stroke-width:2;stroke-miterlimit:4;stroke-dasharray:12, 12;stroke-dashoffset:0;stroke-opacity:1"
           id="rect8364-5"
           width="24.521917"
           height="24.521917"
           x="339.25903"
           y="71.999313"
           ry="4.904367" />
        <rect
           style="fill:#d4a3c8;fill-opacity:1;stroke:none;stroke-width:2;stroke-miterlimit:4;stroke-dasharray:12, 12;stroke-dashoffset:0;stroke-opacity:1"
           id="rect8213-6"
           width="18.473829"
           height="14.233932"
           x="457.2666"
           y="99.11618"
           ry="2.7256465" />
        <rect
           style="fill:#a3c6d4;fill-opacity:1;stroke:none;stroke-width:2;stroke-miterlimit:4;stroke-dasharray:12, 12;stroke-dashoffset:0;stroke-opacity:1"
           id="rect8213-6-8"
           width="18.473829"
           height="14.233932"
           x="434.86023"
           y="99.450623"
           ry="2.7256465" />
        <rect
           style="fill:#a3c6d4;fill-opacity:1;stroke:none;stroke-width:2;stroke-miterlimit:4;stroke-dasharray:12, 12;stroke-dashoffset:0;stroke-opacity:1"
           id="rect8213-6-8-0-1"
           width="56.932556"
           height="14.233932"
           x="479.45776"
           y="99.292969"
           ry="2.7256465" />
        <rect
           style="fill:#f9f9f9;fill-opacity:1;stroke:none;stroke-width:0.63312709;stroke-miterlimit:4;stroke-dasharray:3.7987627, 3.7987627;stroke-dashoffset:0;stroke-opacity:1"
           id="rect8161-7"
           width="203.38922"
           height="24.379229"
           x="387.42059"
           y="293.69571" />
        <rect
           style="fill:#f6f9fc;fill-opacity:1;stroke:none;stroke-width:0.76290411;stroke-miterlimit:4;stroke-dasharray:4.5774249, 4.5774249;stroke-dashoffset:0;stroke-opacity:1"
           id="rect8161-6"
           width="203.25945"
           height="35.420551"
           x="387.21298"
           y="251.74634" />
        <circle
           style="fill:#73a4dc;fill-opacity:1;stroke:none;stroke-width:2;stroke-miterlimit:4;stroke-dasharray:12, 12;stroke-dashoffset:0;stroke-opacity:1"
           id="path8193-5"
           cx="403.52017"
           cy="269.36133"
           r="3.5557468" />
        <circle
           style="fill:#ddecf1;fill-opacity:1;stroke:none;stroke-width:2;stroke-miterlimit:4;stroke-dasharray:12, 12;stroke-dashoffset:0;stroke-opacity:1"
           id="path10419"
           cx="484.05759"
           cy="67.390335"
           r="20.100231" />
        <rect
           style="fill:#467b99;fill-opacity:1;stroke:none;stroke-width:2;stroke-miterlimit:4;stroke-dasharray:12, 12;stroke-dashoffset:0;stroke-opacity:1"
           id="rect8364-5-5"
           width="24.521917"
           height="24.521917"
           x="339.25903"
           y="396.44003"
           ry="4.904367" />
        <path
           inkscape:connector-curvature="0"
           style="opacity:1;fill:#303030;fill-opacity:1;stroke:none;stroke-width:10;stroke-linecap:round;stroke-linejoin:round;stroke-miterlimit:4;stroke-dasharray:none;stroke-dashoffset:0;stroke-opacity:1"
           d="m 342.41064,20.67416 c -10.53491,0 -19.01562,8.48071 -19.01562,19.01562 l 0,423.49805 c 0,10.53491 8.48071,19.01758 19.01562,19.01758 l 247.20899,0 c 10.53491,0 19.01562,-8.48267 19.01562,-19.01758 l 0,-423.49805 c 0,-10.53491 -8.48071,-19.01562 -19.01562,-19.01562 l -247.20899,0 z m -2.18164,7.09375 251.57227,0 c 5.52788,0 9.97851,4.45063 9.97851,9.97851 l 0,382.14844 c 0,5.52788 -4.45063,9.97656 -9.97851,9.97656 l -251.57227,0 c -5.52788,0 -9.97851,-4.44868 -9.97851,-9.97656 l 0,-382.14844 c 0,-5.52788 4.45063,-9.97851 9.97851,-9.97851 z"
           id="rect7869-8-1" />
        <rect
           style="fill:#f45b5b;fill-opacity:1;stroke:none;stroke-width:2;stroke-miterlimit:4;stroke-dasharray:12, 12;stroke-dashoffset:0;stroke-opacity:1"
           id="rect8364-5-2"
           width="24.521917"
           height="24.521917"
           x="339.25903"
           y="37.999313"
           ry="4.904367" />
        <rect
           style="opacity:1;fill:#81f6b6;fill-opacity:1;stroke:none;stroke-width:10;stroke-linecap:round;stroke-linejoin:round;stroke-miterlimit:4;stroke-dasharray:none;stroke-dashoffset:0;stroke-opacity:1"
           id="rect11456"
           width="204.49736"
           height="57.707474"
           x="386.02377"
           y="144.50238"
           ry="2.7256501" />
        <rect
           style="fill:#f6df81;fill-opacity:1;stroke:none;stroke-width:2;stroke-miterlimit:4;stroke-dasharray:12, 12;stroke-dashoffset:0;stroke-opacity:1"
           id="rect8213-6-4"
           width="23.072155"
           height="14.233932"
           x="387.05057"
           y="330.48206"
           ry="2.7256463" />
        <rect
           style="fill:#f6df81;fill-opacity:1;stroke:none;stroke-width:2;stroke-miterlimit:4;stroke-dasharray:12, 12;stroke-dashoffset:0;stroke-opacity:1"
           id="rect8213-6-4-4"
           width="23.072155"
           height="14.233932"
           x="387.05057"
           y="330.48206"
           ry="2.7256463" />
        <rect
           style="fill:#81f6b6;fill-opacity:1;stroke:none;stroke-width:2;stroke-miterlimit:4;stroke-dasharray:12, 12;stroke-dashoffset:0;stroke-opacity:1"
           id="rect8213-6-4-6"
           width="23.072155"
           height="14.233932"
           x="413.05057"
           y="330.48206"
           ry="2.7256463" />
        <rect
           style="fill:#f6a781;fill-opacity:1;stroke:none;stroke-width:2;stroke-miterlimit:4;stroke-dasharray:12, 12;stroke-dashoffset:0;stroke-opacity:1"
           id="rect8213-6-4-0"
           width="23.072155"
           height="14.233932"
           x="465.05057"
           y="330.48206"
           ry="2.7256463" />
        <rect
           style="fill:#81f6b6;fill-opacity:1;stroke:none;stroke-width:2;stroke-miterlimit:4;stroke-dasharray:12, 12;stroke-dashoffset:0;stroke-opacity:1"
           id="rect8213-6-4-6-7"
           width="23.072155"
           height="14.233932"
           x="439.05057"
           y="330.48206"
           ry="2.7256463" />
        <rect
           style="fill:#f6df81;fill-opacity:1;stroke:none;stroke-width:2;stroke-miterlimit:4;stroke-dasharray:12, 12;stroke-dashoffset:0;stroke-opacity:1"
           id="rect8213-6-4-4-7"
           width="23.072155"
           height="14.233932"
           x="491.05054"
           y="330.48206"
           ry="2.7256463" />
        <rect
           style="opacity:1;fill:#e7e7e7;fill-opacity:1;stroke:none;stroke-width:0.76300001;stroke-linecap:round;stroke-linejoin:round;stroke-miterlimit:4;stroke-dasharray:4.578, 4.578;stroke-dashoffset:0;stroke-opacity:1"
           id="rect11504"
           width="204.81906"
           height="3.7350774"
           x="387.05652"
           y="357.31586" />
        <rect
           style="opacity:1;fill:#e7e7e7;fill-opacity:1;stroke:none;stroke-width:0.76300001;stroke-linecap:round;stroke-linejoin:round;stroke-miterlimit:4;stroke-dasharray:4.578, 4.578;stroke-dashoffset:0;stroke-opacity:1"
           id="rect11504-1"
           width="204.81906"
           height="3.7350774"
           x="387.05652"
           y="365.6012" />
        <rect
           style="opacity:1;fill:#e7e7e7;fill-opacity:1;stroke:none;stroke-width:0.76300001;stroke-linecap:round;stroke-linejoin:round;stroke-miterlimit:4;stroke-dasharray:4.578, 4.578;stroke-dashoffset:0;stroke-opacity:1"
           id="rect11504-1-8"
           width="204.81906"
           height="3.7350774"
           x="387.05652"
           y="373.88654" />
        <rect
           style="opacity:1;fill:#e7e7e7;fill-opacity:1;stroke:none;stroke-width:0.76300001;stroke-linecap:round;stroke-linejoin:round;stroke-miterlimit:4;stroke-dasharray:4.578, 4.578;stroke-dashoffset:0;stroke-opacity:1"
           id="rect11504-1-8-4"
           width="95.080414"
           height="3.7350774"
           x="387.05652"
           y="382.17184" />
        <rect
           style="opacity:1;fill:#ffffff;fill-opacity:1;stroke:none;stroke-width:0.76300001;stroke-linecap:round;stroke-linejoin:round;stroke-miterlimit:4;stroke-dasharray:4.578, 4.578;stroke-dashoffset:0;stroke-opacity:1"
           id="rect11504-4"
           width="189.13159"
           height="3.7350774"
           x="393.05652"
           y="153.31584" />
        <rect
           style="opacity:1;fill:#ffffff;fill-opacity:1;stroke:none;stroke-width:0.76300001;stroke-linecap:round;stroke-linejoin:round;stroke-miterlimit:4;stroke-dasharray:4.578, 4.578;stroke-dashoffset:0;stroke-opacity:1"
           id="rect11504-1-0"
           width="189.13159"
           height="3.7350774"
           x="393.05652"
           y="161.6012" />
        <rect
           style="opacity:1;fill:#ffffff;fill-opacity:1;stroke:none;stroke-width:0.76300001;stroke-linecap:round;stroke-linejoin:round;stroke-miterlimit:4;stroke-dasharray:4.578, 4.578;stroke-dashoffset:0;stroke-opacity:1"
           id="rect11504-1-8-4-3"
           width="172.64423"
           height="3.7350774"
           x="393.05652"
           y="170.17184" />
      </g>
    </g>
  </g>
</svg>
