<?xml version="1.0" encoding="UTF-8" standalone="no"?>
<!-- Created with Inkscape (http://www.inkscape.org/) -->

<svg
   xmlns:dc="http://purl.org/dc/elements/1.1/"
   xmlns:cc="http://creativecommons.org/ns#"
   xmlns:rdf="http://www.w3.org/1999/02/22-rdf-syntax-ns#"
   xmlns:svg="http://www.w3.org/2000/svg"
   xmlns="http://www.w3.org/2000/svg"
   xmlns:sodipodi="http://sodipodi.sourceforge.net/DTD/sodipodi-0.dtd"
   xmlns:inkscape="http://www.inkscape.org/namespaces/inkscape"
   width="39.462498mm"
   height="59.07172mm"
   viewBox="0 0 139.82775 209.30924"
   id="svg14047"
   version="1.1"
   inkscape:version="0.91 r13725"
   inkscape:export-filename="/home/dan/dev/org/astral/website/assets/img/remote.png"
   inkscape:export-xdpi="47.777187"
   inkscape:export-ydpi="47.777187"
   sodipodi:docname="remote.svg">
  <defs
     id="defs14049" />
  <sodipodi:namedview
     id="base"
     pagecolor="#ffffff"
     bordercolor="#666666"
     borderopacity="1.0"
     inkscape:pageopacity="0.0"
     inkscape:pageshadow="2"
     inkscape:zoom="1.2620896"
     inkscape:cx="175.65409"
     inkscape:cy="45.771442"
     inkscape:document-units="px"
     inkscape:current-layer="layer1"
     showgrid="false"
     inkscape:snap-center="true"
     showguides="false"
     fit-margin-top="0"
     fit-margin-left="0"
     fit-margin-right="0"
     fit-margin-bottom="0" />
  <metadata
     id="metadata14052">
    <rdf:RDF>
      <cc:Work
         rdf:about="">
        <dc:format>image/svg+xml</dc:format>
        <dc:type
           rdf:resource="http://purl.org/dc/dcmitype/StillImage" />
        <dc:title></dc:title>
      </cc:Work>
    </rdf:RDF>
  </metadata>
  <g
     inkscape:label="Layer 1"
     inkscape:groupmode="layer"
     id="layer1"
     transform="translate(-228.81136,-131.97108)">
    <path
       style="opacity:1;fill:#435070;fill-opacity:1;stroke:none;stroke-width:2;stroke-linecap:round;stroke-linejoin:round;stroke-miterlimit:4;stroke-dasharray:12, 12;stroke-dashoffset:0;stroke-opacity:1"
       d="m 298.72472,156.02204 a 47.166152,47.166152 0 0 0 -29.89832,10.72829 47.166152,47.166152 0 0 0 -2.96261,2.60261 47.166152,47.166152 0 0 0 -3.21323,3.45007 47.166152,47.166152 0 0 0 -2.85324,3.75322 47.166152,47.166152 0 0 0 -2.46483,4.01934 47.166152,47.166152 0 0 0 -2.05058,4.24498 47.166152,47.166152 0 0 0 -1.61652,4.42929 47.166152,47.166152 0 0 0 -1.1661,4.56794 47.166152,47.166152 0 0 0 -0.70449,4.66181 47.166152,47.166152 0 0 0 -0.23597,4.70831 47.166152,47.166152 0 0 0 0.11799,3.3364 47.166152,47.166152 0 0 0 0.5684,4.68075 47.166152,47.166152 0 0 0 1.03262,4.59981 47.166152,47.166152 0 0 0 1.48647,4.47407 47.166152,47.166152 0 0 0 1.60877,3.59562 l 6.8e-4,6.7e-4 a 47.166152,47.166152 0 0 0 3.21668,5.57127 47.166152,47.166152 0 0 0 0.002,0.003 l 39.13236,67.78017 38.89035,-67.35989 a 47.166152,47.166152 0 0 0 3.283,-5.68667 47.166152,47.166152 0 0 0 1.26945,-2.62761 47.166152,47.166152 0 0 0 1.61739,-4.42841 47.166152,47.166152 0 0 0 1.16609,-4.5688 47.166152,47.166152 0 0 0 0.70449,-4.66096 47.166152,47.166152 0 0 0 0.23597,-4.70918 47.166152,47.166152 0 0 0 -0.11885,-3.33639 47.166152,47.166152 0 0 0 -0.56754,-4.6799 47.166152,47.166152 0 0 0 -1.03262,-4.60067 47.166152,47.166152 0 0 0 -1.48647,-4.47406 47.166152,47.166152 0 0 0 -1.92656,-4.30354 47.166152,47.166152 0 0 0 -2.34512,-4.08911 47.166152,47.166152 0 0 0 -2.743,-3.83503 47.166152,47.166152 0 0 0 -3.11162,-3.54222 47.166152,47.166152 0 0 0 -3.44921,-3.21322 47.166152,47.166152 0 0 0 -0.47797,-0.36345 47.166152,47.166152 0 0 0 -29.90778,-10.72829 z"
       id="path14595"
       inkscape:connector-curvature="0"
       inkscape:export-xdpi="70.260574"
       inkscape:export-ydpi="70.260574" />
    <path
       style="fill:#ffffff;fill-opacity:1;fill-rule:evenodd;stroke:none;stroke-width:1px;stroke-linecap:butt;stroke-linejoin:miter;stroke-opacity:1"
       d="m 305.993,175.4337 -4.91007,10.62806 -6.87491,13.34381 c -0.032,0.006 -0.0641,0.008 -0.0969,0.0103 -0.7803,-1.38278 -4.60947,-7.17798 -6.04338,-8.79357 -1.32422,-1.49203 -4.86479,-3.77546 -9.06191,-1.84686 -4.33004,1.98971 -6.5089,7.4854 -6.8708,8.70031 -0.34029,1.14242 -1.9215,7.02859 -0.0741,10.82042 1.8473,3.79184 5.30909,6.35281 8.51757,6.15836 3.20847,-0.19445 6.12024,-1.68596 7.79756,-2.66972 1.48981,-0.87378 4.02829,-3.51036 5.15464,-5.02892 0.35119,-0.57462 0.32505,-0.6028 0.50863,-0.30609 0.73511,1.15666 2.18064,2.7718 2.83225,3.42441 1.19437,1.19617 4.78914,3.9862 8.63536,4.4498 5.04155,0.60768 14.07822,0.32074 14.81182,0.32109 1.85982,-0.0308 4.243,-0.0354 5.80638,-0.0716 l -20.13208,-39.13977 z m -2.15511,11.47468 11.6654,23.49142 c -0.28663,0.0307 -0.62892,0.0517 -0.99823,0.0645 l -4.63904,-0.0816 c -2.10457,-0.0818 -4.18064,-0.24999 -8.72264,-2.32086 -1.31163,-0.59803 -3.70171,-2.49832 -4.99215,-4.72831 -0.0712,-0.17495 -0.11768,-0.47339 -0.0402,-0.65511 l 7.54819,-15.38286 z m -19.83129,6.21379 c 0.94447,0.0359 1.82387,0.32272 2.44369,0.97899 0.93065,0.9854 3.26272,4.50529 5.44525,8.19673 0.0478,0.28433 0.0346,0.50833 0.0103,0.76395 -0.008,0.0824 -0.0376,0.18275 -0.077,0.28717 -1.25182,2.08093 -2.26562,3.22828 -2.72468,3.63634 -0.87505,0.77782 -3.30176,2.9505 -6.82753,3.35811 -1.99111,0.2302 -5.26231,-1.48069 -5.53731,-7.09337 -0.2141,-4.36995 1.25252,-7.49613 2.90538,-8.76007 1.03303,-0.78998 2.78769,-1.42768 4.36182,-1.36785 z"
       id="path3402"
       inkscape:connector-curvature="0"
       sodipodi:nodetypes="ccccssssssccssccccccccsccccsscscsssss"
       inkscape:export-xdpi="70.260574"
       inkscape:export-ydpi="70.260574" />
  </g>
</svg>
