<?xml version="1.0" encoding="UTF-8" standalone="no"?>
<!-- Created with Inkscape (http://www.inkscape.org/) -->

<svg
   xmlns:dc="http://purl.org/dc/elements/1.1/"
   xmlns:cc="http://creativecommons.org/ns#"
   xmlns:rdf="http://www.w3.org/1999/02/22-rdf-syntax-ns#"
   xmlns:svg="http://www.w3.org/2000/svg"
   xmlns="http://www.w3.org/2000/svg"
   xmlns:sodipodi="http://sodipodi.sourceforge.net/DTD/sodipodi-0.dtd"
   xmlns:inkscape="http://www.inkscape.org/namespaces/inkscape"
   width="60.376305mm"
   height="90.377861mm"
   viewBox="0 0 213.93179 320.23651"
   id="svg14047"
   version="1.1"
   inkscape:version="0.91 r13725"
   inkscape:export-filename="/home/dan/dev/org/astral/website/assets/img/remote.png"
   inkscape:export-xdpi="47.777187"
   inkscape:export-ydpi="47.777187"
   sodipodi:docname="remote.svg">
  <defs
     id="defs14049" />
  <sodipodi:namedview
     id="base"
     pagecolor="#ffffff"
     bordercolor="#666666"
     borderopacity="1.0"
     inkscape:pageopacity="0.0"
     inkscape:pageshadow="2"
     inkscape:zoom="0.63104478"
     inkscape:cx="-9.21061"
     inkscape:cy="86.470811"
     inkscape:document-units="px"
     inkscape:current-layer="layer1"
     showgrid="false"
     inkscape:snap-center="true"
     showguides="false"
     fit-margin-top="0"
     fit-margin-left="0"
     fit-margin-right="0"
     fit-margin-bottom="0" />
  <metadata
     id="metadata14052">
    <rdf:RDF>
      <cc:Work
         rdf:about="">
        <dc:format>image/svg+xml</dc:format>
        <dc:type
           rdf:resource="http://purl.org/dc/dcmitype/StillImage" />
        <dc:title></dc:title>
      </cc:Work>
    </rdf:RDF>
  </metadata>
  <g
     inkscape:label="Layer 1"
     inkscape:groupmode="layer"
     id="layer1"
     transform="translate(-191.7593,-96.507602)">
    <path
       style="opacity:1;fill:#435070;fill-opacity:1;stroke:none;stroke-width:2;stroke-linecap:round;stroke-linejoin:round;stroke-miterlimit:4;stroke-dasharray:12, 12;stroke-dashoffset:0;stroke-opacity:1"
       d="m 298.72451,131.97118 a 69.913558,69.913558 0 0 0 -44.31773,15.90235 69.913558,69.913558 0 0 0 -4.39143,3.85782 69.913558,69.913558 0 0 0 -4.76292,5.11397 69.913558,69.913558 0 0 0 -4.22931,5.56334 69.913558,69.913558 0 0 0 -3.65357,5.95779 69.913558,69.913558 0 0 0 -3.03954,6.29227 69.913558,69.913558 0 0 0 -2.39613,6.56544 69.913558,69.913558 0 0 0 -1.7285,6.77098 69.913558,69.913558 0 0 0 -1.04424,6.91012 69.913558,69.913558 0 0 0 -0.34978,6.97906 69.913558,69.913558 0 0 0 0.17489,4.94547 69.913558,69.913558 0 0 0 0.84254,6.93821 69.913558,69.913558 0 0 0 1.53062,6.81821 69.913558,69.913558 0 0 0 2.20338,6.63183 69.913558,69.913558 0 0 0 2.38465,5.32972 l 0.001,10e-4 a 69.913558,69.913558 0 0 0 4.76803,8.25819 69.913558,69.913558 0 0 0 0.003,0.004 l 58.00522,100.46936 57.64649,-99.84638 a 69.913558,69.913558 0 0 0 4.86632,-8.42926 69.913558,69.913558 0 0 0 1.88168,-3.89484 69.913558,69.913558 0 0 0 2.39742,-6.56417 69.913558,69.913558 0 0 0 1.72849,-6.77226 69.913558,69.913558 0 0 0 1.04424,-6.90884 69.913558,69.913558 0 0 0 0.34978,-6.98034 69.913558,69.913558 0 0 0 -0.17617,-4.94547 69.913558,69.913558 0 0 0 -0.84126,-6.93693 69.913558,69.913558 0 0 0 -1.53062,-6.81949 69.913558,69.913558 0 0 0 -2.20338,-6.63183 69.913558,69.913558 0 0 0 -2.8557,-6.37907 69.913558,69.913558 0 0 0 -3.47613,-6.0612 69.913558,69.913558 0 0 0 -4.0659,-5.6846 69.913558,69.913558 0 0 0 -4.61229,-5.25058 69.913558,69.913558 0 0 0 -5.1127,-4.76291 69.913558,69.913558 0 0 0 -0.7085,-0.53872 69.913558,69.913558 0 0 0 -44.33177,-15.90235 z"
       id="path14595"
       inkscape:connector-curvature="0"
       inkscape:export-xdpi="70.260574"
       inkscape:export-ydpi="70.260574" />
    <path
       style="fill:#ffffff;fill-opacity:1;fill-rule:evenodd;stroke:none;stroke-width:1px;stroke-linecap:butt;stroke-linejoin:miter;stroke-opacity:1"
       d="m 309.49817,160.74475 -7.27812,15.75378 -10.19056,19.7793 c -0.0474,0.008 -0.0951,0.0125 -0.14359,0.0153 -1.15664,-2.04967 -6.83255,-10.6398 -8.958,-13.03457 -1.96287,-2.2116 -7.21099,-5.59629 -13.43232,-2.73754 -6.41834,2.94929 -9.64803,11.09545 -10.18446,12.89631 -0.50441,1.69337 -2.84821,10.41834 -0.10998,16.03891 2.73822,5.62057 7.86956,9.41666 12.62543,9.12843 4.75586,-0.28823 9.07194,-2.49907 11.5582,-3.95728 2.20832,-1.29519 5.97105,-5.20335 7.64063,-7.45427 0.52056,-0.85175 0.48181,-0.89352 0.75392,-0.45373 1.08964,1.71451 3.23234,4.1086 4.19821,5.07594 1.77039,1.77307 7.09884,5.90868 12.80003,6.59587 7.473,0.90076 20.8679,0.47543 21.9553,0.47595 2.75678,-0.0457 6.28932,-0.0525 8.60669,-0.10609 l -29.84138,-58.01624 z m -3.19448,17.00871 17.29141,34.82092 c -0.42486,0.0455 -0.93224,0.0767 -1.47966,0.0957 l -6.87635,-0.12097 c -3.11958,-0.12124 -6.19691,-0.37056 -12.92942,-3.44017 -1.94422,-0.88645 -5.487,-3.70322 -7.39978,-7.00869 -0.10558,-0.25932 -0.17444,-0.7017 -0.0596,-0.97106 l 11.18854,-22.80173 z m -29.39559,9.21059 c 1.39999,0.0532 2.7035,0.47835 3.62225,1.45114 1.37949,1.46064 4.83628,6.67811 8.07139,12.14987 0.0709,0.42146 0.0514,0.75349 0.0153,1.13239 -0.0116,0.1222 -0.0558,0.27088 -0.11405,0.42567 -1.85554,3.08453 -3.35828,4.78522 -4.03875,5.39009 -1.29706,1.15294 -4.89412,4.37347 -10.12031,4.97766 -2.95139,0.34121 -7.80023,-2.19481 -8.20785,-10.51439 -0.31737,-6.4775 1.85658,-11.11138 4.30658,-12.9849 1.53124,-1.17096 4.13214,-2.11622 6.46546,-2.02753 z"
       id="path3402"
       inkscape:connector-curvature="0"
       sodipodi:nodetypes="ccccssssssccssccccccccsccccsscscsssss"
       inkscape:export-xdpi="70.260574"
       inkscape:export-ydpi="70.260574" />
  </g>
</svg>
